<svg width="38" height="35" viewBox="0 0 38 35" fill="none" xmlns="http://www.w3.org/2000/svg">
<g id="bell">
<path id="Vector" d="M28.0143 11.6667C28.0143 9.34601 27.0308 7.12042 25.2801 5.47947C23.5294 3.83853 21.155 2.91666 18.6792 2.91666C16.2033 2.91666 13.8289 3.83853 12.0783 5.47947C10.3276 7.12042 9.34407 9.34601 9.34407 11.6667C9.34407 21.875 4.67651 24.7917 4.67651 24.7917H32.6818C32.6818 24.7917 28.0143 21.875 28.0143 11.6667Z" fill="#A99F9F"/>
<path id="Vector_2" d="M21.3708 30.625C21.0973 31.067 20.7046 31.4339 20.2323 31.6889C19.7599 31.9439 19.2243 32.0782 18.6792 32.0782C18.134 32.0782 17.5985 31.9439 17.1261 31.6889C16.6537 31.4339 16.2611 31.067 15.9875 30.625" stroke="#A99F9F" stroke-width="2" stroke-linecap="round" stroke-linejoin="round"/>
<ellipse id="Ellipse 47" cx="27.5499" cy="6.85176" rx="6.17977" ry="5.79244" fill="#0499AD"/>
</g>
</svg>
