<svg width="29" height="24" viewBox="0 0 29 24" fill="none" xmlns="http://www.w3.org/2000/svg">
<g id="vuesax/bold/dollar-square">
<g id="dollar-square">
<path id="Vector" d="M13.3489 8.08V10.94L12.156 10.59C11.5536 10.41 11.1875 10.24 11.1875 9.37C11.1875 8.66 11.8135 8.08 12.5812 8.08H13.3489Z" fill="#434343"/>
<path id="Vector_2" d="M17.2817 14.63C17.2817 15.34 16.6558 15.92 15.8881 15.92H15.1204V13.06L16.3132 13.41C16.9156 13.59 17.2817 13.76 17.2817 14.63Z" fill="#434343"/>
<path id="Vector_3" d="M19.1832 2H9.28584C4.98675 2 2.42383 4.17 2.42383 7.81V16.19C2.42383 19.83 4.98675 22 9.28584 22H19.1832C23.4823 22 26.0452 19.83 26.0452 16.19V7.81C26.0452 4.17 23.4823 2 19.1832 2ZM16.9037 12C17.825 12.27 19.0533 12.84 19.0533 14.63C19.0533 16.17 17.636 17.42 15.888 17.42H15.1203V18C15.1203 18.41 14.7188 18.75 14.2345 18.75C13.7503 18.75 13.3487 18.41 13.3487 18V17.42H12.9235C10.9866 17.42 9.41576 16.03 9.41576 14.33C9.41576 13.92 9.80551 13.58 10.3016 13.58C10.7858 13.58 11.1874 13.92 11.1874 14.33C11.1874 15.21 11.9669 15.92 12.9235 15.92H13.3487V12.53L11.5653 12C10.6441 11.73 9.41576 11.16 9.41576 9.37C9.41576 7.83 10.833 6.58 12.581 6.58H13.3487V6C13.3487 5.59 13.7503 5.25 14.2345 5.25C14.7188 5.25 15.1203 5.59 15.1203 6V6.58H15.5455C17.4825 6.58 19.0533 7.97 19.0533 9.67C19.0533 10.08 18.6635 10.42 18.1675 10.42C17.6833 10.42 17.2817 10.08 17.2817 9.67C17.2817 8.79 16.5022 8.08 15.5455 8.08H15.1203V11.47L16.9037 12Z" fill="#434343"/>
</g>
</g>
</svg>
