<svg width="29" height="24" viewBox="0 0 29 24" fill="none" xmlns="http://www.w3.org/2000/svg">
<g id="vuesax/bold/dollar-square">
<g id="dollar-square">
<path id="Vector" d="M13.2871 8.08V10.94L12.0942 10.59C11.4919 10.41 11.1257 10.24 11.1257 9.37C11.1257 8.66 11.7517 8.08 12.5194 8.08H13.2871Z" fill="white"/>
<path id="Vector_2" d="M17.22 14.63C17.22 15.34 16.594 15.92 15.8263 15.92H15.0586V13.06L16.2515 13.41C16.8538 13.59 17.22 13.76 17.22 14.63Z" fill="white"/>
<path id="Vector_3" d="M19.1214 2H9.22408C4.92498 2 2.36206 4.17 2.36206 7.81V16.19C2.36206 19.83 4.92498 22 9.22408 22H19.1214C23.4205 22 25.9835 19.83 25.9835 16.19V7.81C25.9835 4.17 23.4205 2 19.1214 2ZM16.842 12C17.7632 12.27 18.9915 12.84 18.9915 14.63C18.9915 16.17 17.5742 17.42 15.8263 17.42H15.0586V18C15.0586 18.41 14.657 18.75 14.1728 18.75C13.6885 18.75 13.287 18.41 13.287 18V17.42H12.8618C10.9248 17.42 9.35399 16.03 9.35399 14.33C9.35399 13.92 9.74375 13.58 10.2398 13.58C10.724 13.58 11.1256 13.92 11.1256 14.33C11.1256 15.21 11.9051 15.92 12.8618 15.92H13.287V12.53L11.5035 12C10.5823 11.73 9.35399 11.16 9.35399 9.37C9.35399 7.83 10.7713 6.58 12.5193 6.58H13.287V6C13.287 5.59 13.6885 5.25 14.1728 5.25C14.657 5.25 15.0586 5.59 15.0586 6V6.58H15.4837C17.4207 6.58 18.9915 7.97 18.9915 9.67C18.9915 10.08 18.6018 10.42 18.1057 10.42C17.6215 10.42 17.2199 10.08 17.2199 9.67C17.2199 8.79 16.4404 8.08 15.4837 8.08H15.0586V11.47L16.842 12Z" fill="white"/>
</g>
</g>
</svg>
