<svg width="37" height="31" viewBox="0 0 37 31" fill="none" xmlns="http://www.w3.org/2000/svg">
<g id="vuesax/bold/empty-wallet">
<g id="empty-wallet">
<path id="Vector" d="M22.9919 5.10209V10.0104H20.7036V5.10209C20.7036 4.75334 20.3374 4.58542 20.0934 4.58542C20.0171 4.58542 19.9408 4.59834 19.8645 4.62417L7.76692 8.48625C6.95838 8.74459 6.43969 9.39042 6.43969 10.1267V10.9921C5.05144 11.8704 4.15137 13.2783 4.15137 14.8671V10.1267C4.15137 8.58959 5.26502 7.22042 6.95838 6.67792L19.0712 2.80292C19.4069 2.69959 19.7577 2.64792 20.0934 2.64792C21.6189 2.64792 22.9919 3.69417 22.9919 5.10209Z" fill="#0499AD"/>
<path id="Vector_2" d="M33.1366 18.7292V20.0208C33.1366 20.3696 32.8162 20.6537 32.3891 20.6667H30.1618C29.3532 20.6667 28.621 20.1629 28.56 19.4912C28.5142 19.0908 28.6973 18.7162 29.0024 18.4579C29.277 18.2125 29.6583 18.0833 30.0702 18.0833H32.3738C32.8162 18.0962 33.1366 18.3804 33.1366 18.7292Z" fill="#0499AD"/>
<path id="Vector_3" d="M30.0552 16.7271H31.6112C32.4503 16.7271 33.1368 16.1458 33.1368 15.4354V14.8671C33.1368 12.1933 30.5586 10.0104 27.4007 10.0104H9.88743C8.59071 10.0104 7.40079 10.3721 6.43969 10.9921C5.05144 11.8704 4.15137 13.2783 4.15137 14.8671V23.56C4.15137 26.2338 6.72954 28.4167 9.88743 28.4167H27.4007C30.5586 28.4167 33.1368 26.2338 33.1368 23.56V23.3146C33.1368 22.6042 32.4503 22.0229 31.6112 22.0229H30.284C28.8195 22.0229 27.416 21.2608 27.0346 20.0596C26.7142 19.0779 27.0956 18.135 27.8584 17.5021C28.4228 17.0113 29.2009 16.7271 30.0552 16.7271ZM21.6952 16.4688H11.0163C10.3909 16.4688 9.87217 16.0296 9.87217 15.5C9.87217 14.9704 10.3909 14.5313 11.0163 14.5313H21.6952C22.3207 14.5313 22.8393 14.9704 22.8393 15.5C22.8393 16.0296 22.3207 16.4688 21.6952 16.4688Z" fill="#0499AD"/>
</g>
</g>
</svg>
