<svg width="37" height="31" viewBox="0 0 37 31" fill="none" xmlns="http://www.w3.org/2000/svg">
<g id="vuesax/bold/empty-wallet">
<g id="empty-wallet">
<path id="Vector" d="M22.6545 5.10209V10.0104H20.3662V5.10209C20.3662 4.75334 20 4.58542 19.7559 4.58542C19.6797 4.58542 19.6034 4.59834 19.5271 4.62417L7.42952 8.48625C6.62097 8.74459 6.10229 9.39042 6.10229 10.1267V10.9921C4.71404 11.8704 3.81396 13.2783 3.81396 14.8671V10.1267C3.81396 8.58958 4.92762 7.22042 6.62097 6.67792L18.7338 2.80292C19.0695 2.69959 19.4203 2.64792 19.7559 2.64792C21.2815 2.64792 22.6545 3.69417 22.6545 5.10209Z" fill="#434343"/>
<path id="Vector_2" d="M32.7992 18.7292V20.0208C32.7992 20.3696 32.4788 20.6538 32.0517 20.6667H29.8244C29.0158 20.6667 28.2836 20.1629 28.2226 19.4913C28.1768 19.0908 28.3599 18.7163 28.665 18.4579C28.9396 18.2125 29.3209 18.0833 29.7328 18.0833H32.0364C32.4788 18.0963 32.7992 18.3804 32.7992 18.7292Z" fill="#434343"/>
<path id="Vector_3" d="M29.7178 16.7271H31.2738C32.1129 16.7271 32.7994 16.1458 32.7994 15.4354V14.8671C32.7994 12.1933 30.2212 10.0104 27.0633 10.0104H9.55003C8.25331 10.0104 7.06338 10.3721 6.10229 10.9921C4.71404 11.8704 3.81396 13.2783 3.81396 14.8671V23.56C3.81396 26.2337 6.39214 28.4167 9.55003 28.4167H27.0633C30.2212 28.4167 32.7994 26.2337 32.7994 23.56V23.3146C32.7994 22.6042 32.1129 22.0229 31.2738 22.0229H29.9466C28.4821 22.0229 27.0786 21.2608 26.6972 20.0596C26.3768 19.0779 26.7582 18.135 27.521 17.5021C28.0854 17.0112 28.8635 16.7271 29.7178 16.7271ZM21.3578 16.4687H10.6789C10.0535 16.4687 9.53477 16.0296 9.53477 15.5C9.53477 14.9704 10.0535 14.5312 10.6789 14.5312H21.3578C21.9832 14.5312 22.5019 14.9704 22.5019 15.5C22.5019 16.0296 21.9832 16.4687 21.3578 16.4687Z" fill="white"/>
</g>
</g>
</svg>
