<svg width="21" height="20" viewBox="0 0 21 20" fill="none" xmlns="http://www.w3.org/2000/svg">
<g id="vuesax/outline/login">
<g id="login">
<path id="Vector" d="M13.1825 18.5583H13.0742C9.37418 18.5583 7.59085 17.1 7.28252 13.8333C7.24918 13.4917 7.49918 13.1833 7.84918 13.15C8.19085 13.1167 8.49918 13.375 8.53252 13.7167C8.77418 16.3333 10.0075 17.3083 13.0825 17.3083H13.1908C16.5825 17.3083 17.7825 16.1083 17.7825 12.7167V7.28335C17.7825 3.89168 16.5825 2.69168 13.1908 2.69168H13.0825C9.99085 2.69168 8.75752 3.68335 8.53252 6.35001C8.49085 6.69168 8.20752 6.95001 7.84918 6.91668C7.49918 6.89168 7.24918 6.58335 7.27418 6.24168C7.55752 2.92501 9.34918 1.44168 13.0742 1.44168H13.1825C17.2742 1.44168 19.0242 3.19168 19.0242 7.28335V12.7167C19.0242 16.8083 17.2742 18.5583 13.1825 18.5583Z" fill="white"/>
<path id="Vector_2" d="M12.8825 10.625H2.14917C1.8075 10.625 1.52417 10.3417 1.52417 10C1.52417 9.65833 1.8075 9.375 2.14917 9.375H12.8825C13.2242 9.375 13.5075 9.65833 13.5075 10C13.5075 10.3417 13.2325 10.625 12.8825 10.625Z" fill="white"/>
<path id="Vector_3" d="M11.024 13.4167C10.8657 13.4167 10.7074 13.3583 10.5824 13.2333C10.3407 12.9917 10.3407 12.5917 10.5824 12.35L12.9324 10L10.5824 7.65C10.3407 7.40834 10.3407 7.00834 10.5824 6.76667C10.824 6.525 11.224 6.525 11.4657 6.76667L14.2574 9.55834C14.499 9.8 14.499 10.2 14.2574 10.4417L11.4657 13.2333C11.3407 13.3583 11.1824 13.4167 11.024 13.4167Z" fill="white"/>
</g>
</g>
</svg>
