<svg width="21" height="20" viewBox="0 0 21 20" fill="none" xmlns="http://www.w3.org/2000/svg">
<g id="vuesax/outline/setting-2">
<g id="setting-2">
<path id="Vector" d="M10.7778 13.125C9.05283 13.125 7.65283 11.725 7.65283 10C7.65283 8.275 9.05283 6.875 10.7778 6.875C12.5028 6.875 13.9028 8.275 13.9028 10C13.9028 11.725 12.5028 13.125 10.7778 13.125ZM10.7778 8.125C9.7445 8.125 8.90283 8.96667 8.90283 10C8.90283 11.0333 9.7445 11.875 10.7778 11.875C11.8112 11.875 12.6528 11.0333 12.6528 10C12.6528 8.96667 11.8112 8.125 10.7778 8.125Z" fill="white"/>
<path id="Vector_2" d="M13.4529 18.4917C13.2779 18.4917 13.1029 18.4667 12.9279 18.425C12.4112 18.2833 11.9779 17.9583 11.7029 17.5L11.6029 17.3333C11.1112 16.4833 10.4362 16.4833 9.94458 17.3333L9.85291 17.4917C9.57791 17.9583 9.14458 18.2917 8.62791 18.425C8.10291 18.5667 7.56125 18.4917 7.10291 18.2167L5.66958 17.3917C5.16125 17.1 4.79458 16.625 4.63625 16.05C4.48625 15.475 4.56125 14.8833 4.85291 14.375C5.09458 13.95 5.16125 13.5667 5.01958 13.325C4.87791 13.0833 4.51958 12.9417 4.02791 12.9417C2.81125 12.9417 1.81958 11.95 1.81958 10.7333V9.26667C1.81958 8.05 2.81125 7.05833 4.02791 7.05833C4.51958 7.05833 4.87791 6.91667 5.01958 6.675C5.16125 6.43333 5.10291 6.05 4.85291 5.625C4.56125 5.11667 4.48625 4.51667 4.63625 3.95C4.78625 3.375 5.15291 2.9 5.66958 2.60833L7.11125 1.78333C8.05291 1.225 9.29458 1.55 9.86125 2.50833L9.96125 2.675C10.4529 3.525 11.1279 3.525 11.6196 2.675L11.7112 2.51667C12.2779 1.55 13.5196 1.225 14.4696 1.79167L15.9029 2.61667C16.4112 2.90833 16.7779 3.38333 16.9362 3.95833C17.0862 4.53333 17.0112 5.125 16.7196 5.63333C16.4779 6.05833 16.4112 6.44167 16.5529 6.68333C16.6946 6.925 17.0529 7.06667 17.5446 7.06667C18.7612 7.06667 19.7529 8.05833 19.7529 9.275V10.7417C19.7529 11.9583 18.7612 12.95 17.5446 12.95C17.0529 12.95 16.6946 13.0917 16.5529 13.3333C16.4112 13.575 16.4696 13.9583 16.7196 14.3833C17.0112 14.8917 17.0946 15.4917 16.9362 16.0583C16.7862 16.6333 16.4196 17.1083 15.9029 17.4L14.4612 18.225C14.1446 18.4 13.8029 18.4917 13.4529 18.4917ZM10.7779 15.4083C11.5196 15.4083 12.2112 15.875 12.6862 16.7L12.7779 16.8583C12.8779 17.0333 13.0446 17.1583 13.2446 17.2083C13.4446 17.2583 13.6446 17.2333 13.8112 17.1333L15.2529 16.3C15.4696 16.175 15.6362 15.9667 15.7029 15.7167C15.7696 15.4667 15.7362 15.2083 15.6112 14.9917C15.1362 14.175 15.0779 13.3333 15.4446 12.6917C15.8112 12.05 16.5696 11.6833 17.5196 11.6833C18.0529 11.6833 18.4779 11.2583 18.4779 10.725V9.25833C18.4779 8.73333 18.0529 8.3 17.5196 8.3C16.5696 8.3 15.8112 7.93333 15.4446 7.29167C15.0779 6.65 15.1362 5.80833 15.6112 4.99167C15.7362 4.775 15.7696 4.51667 15.7029 4.26667C15.6362 4.01667 15.4779 3.81667 15.2612 3.68333L13.8196 2.85833C13.4612 2.64167 12.9862 2.76667 12.7696 3.13333L12.6779 3.29167C12.2029 4.11667 11.5112 4.58333 10.7696 4.58333C10.0279 4.58333 9.33625 4.11667 8.86125 3.29167L8.76958 3.125C8.56125 2.775 8.09458 2.65 7.73625 2.85833L6.29458 3.69167C6.07791 3.81667 5.91125 4.025 5.84458 4.275C5.77791 4.525 5.81125 4.78333 5.93625 5C6.41125 5.81667 6.46958 6.65833 6.10291 7.3C5.73625 7.94167 4.97791 8.30833 4.02791 8.30833C3.49458 8.30833 3.06958 8.73333 3.06958 9.26667V10.7333C3.06958 11.2583 3.49458 11.6917 4.02791 11.6917C4.97791 11.6917 5.73625 12.0583 6.10291 12.7C6.46958 13.3417 6.41125 14.1833 5.93625 15C5.81125 15.2167 5.77791 15.475 5.84458 15.725C5.91125 15.975 6.06958 16.175 6.28625 16.3083L7.72791 17.1333C7.90291 17.2417 8.11125 17.2667 8.30291 17.2167C8.50291 17.1667 8.66958 17.0333 8.77791 16.8583L8.86958 16.7C9.34458 15.8833 10.0362 15.4083 10.7779 15.4083Z" fill="white"/>
</g>
</g>
</svg>
